<svg width="60" height="84" viewBox="0 0 60 84" fill="none" xmlns="http://www.w3.org/2000/svg">
<rect width="60" height="84" rx="5" fill="#D9D9D9"/>
<path d="M47.0652 50.9119C46.5495 51.9659 45.8379 52.9044 44.9711 53.6736C44.1043 54.4429 43.0992 55.0279 42.0135 55.395C40.9277 55.7622 39.7826 55.9044 38.6437 55.8134C37.5048 55.7224 36.3944 55.4001 35.3761 54.8649C34.5497 54.4209 33.7796 53.8729 33.0835 53.2332L32.9704 52.9561H32.7917L33.0835 53.2271L35.8644 60H24.1395L26.8548 53.3564L27.1228 53.1224H26.9501L26.8548 53.3502C26.2088 53.9373 25.4995 54.4456 24.7409 54.8649C23.7225 55.4203 22.6074 55.7608 21.4606 55.8667C20.3138 55.9726 19.158 55.8417 18.0606 55.4816C16.9631 55.1216 15.9458 54.5396 15.0677 53.7694C14.1897 52.9993 13.4685 52.0563 12.946 50.9954C12.4235 49.9345 12.1102 48.7768 12.0242 47.5895C11.9383 46.4023 12.0814 45.2093 12.4453 44.0797C12.8092 42.9502 13.3866 41.9068 14.1439 41.01C14.9013 40.1132 15.8234 39.3811 16.8568 38.8561C18.5665 38.0151 20.4303 37.5616 22.3233 37.5261C21.7078 36.0135 21.3725 34.3949 21.3348 32.7543C21.3941 30.4117 22.3358 28.1856 23.9592 26.5503C25.5826 24.9151 27.7594 24 30.0257 24C32.2921 24 34.4689 24.9151 36.0923 26.5503C37.7157 28.1856 38.6574 30.4117 38.7167 32.7543C38.6821 34.3822 38.3571 35.9895 37.758 37.4954C39.6654 37.534 41.5422 37.9982 43.2601 38.8561C45.3079 39.9363 46.8581 41.8116 47.5713 44.0712C48.2845 46.3309 48.1025 48.7907 47.0652 50.9119Z" fill="#1D1D1B"/>
<path d="M41.5226 64.7273V80H38.7559V67.4194H38.6664L35.0943 69.7013V67.1658L38.8901 64.7273H41.5226ZM49.9956 80.2908C48.7677 80.2908 47.7137 79.9801 46.8337 79.3587C45.9587 78.7322 45.2851 77.8299 44.8128 76.6516C44.3454 75.4684 44.1118 74.044 44.1118 72.3786C44.1167 70.7131 44.3529 69.2962 44.8202 68.1278C45.2925 66.9545 45.9662 66.0597 46.8412 65.4432C47.7211 64.8267 48.7726 64.5185 49.9956 64.5185C51.2187 64.5185 52.2702 64.8267 53.1501 65.4432C54.0301 66.0597 54.7037 66.9545 55.1711 68.1278C55.6434 69.3011 55.8795 70.718 55.8795 72.3786C55.8795 74.049 55.6434 75.4759 55.1711 76.6591C54.7037 77.8374 54.0301 78.7372 53.1501 79.3587C52.2751 79.9801 51.2236 80.2908 49.9956 80.2908ZM49.9956 77.9567C50.9502 77.9567 51.7034 77.4869 52.2552 76.5472C52.8121 75.6026 53.0905 74.2131 53.0905 72.3786C53.0905 71.1655 52.9637 70.1463 52.7101 69.321C52.4566 68.4957 52.0986 67.8743 51.6363 67.4567C51.1739 67.0341 50.627 66.8228 49.9956 66.8228C49.0461 66.8228 48.2954 67.2951 47.7435 68.2397C47.1917 69.1793 46.9133 70.5589 46.9083 72.3786C46.9033 73.5966 47.0251 74.6207 47.2737 75.451C47.5273 76.2812 47.8852 76.9077 48.3476 77.3303C48.8099 77.7479 49.3593 77.9567 49.9956 77.9567Z" fill="#1D1D1B"/>
<path d="M10.5692 4.72727V20H7.80256V7.41939H7.71307L4.14098 9.70135V7.16584L7.93679 4.72727H10.5692ZM19.0423 20.2908C17.8143 20.2908 16.7604 19.9801 15.8804 19.3587C15.0054 18.7322 14.3317 17.8299 13.8594 16.6516C13.3921 15.4684 13.1585 14.044 13.1585 12.3786C13.1634 10.7131 13.3996 9.29616 13.8669 8.12784C14.3392 6.95454 15.0129 6.05966 15.8879 5.44318C16.7678 4.8267 17.8193 4.51847 19.0423 4.51847C20.2653 4.51847 21.3168 4.8267 22.1968 5.44318C23.0768 6.05966 23.7504 6.95454 24.2178 8.12784C24.6901 9.30114 24.9262 10.718 24.9262 12.3786C24.9262 14.049 24.6901 15.4759 24.2178 16.6591C23.7504 17.8374 23.0768 18.7372 22.1968 19.3587C21.3218 19.9801 20.2703 20.2908 19.0423 20.2908ZM19.0423 17.9567C19.9969 17.9567 20.7501 17.4869 21.3019 16.5472C21.8587 15.6026 22.1371 14.2131 22.1371 12.3786C22.1371 11.1655 22.0104 10.1463 21.7568 9.32102C21.5033 8.49574 21.1453 7.87429 20.683 7.45668C20.2206 7.03409 19.6737 6.8228 19.0423 6.8228C18.0928 6.8228 17.342 7.2951 16.7902 8.2397C16.2384 9.17933 15.9599 10.5589 15.955 12.3786C15.95 13.5966 16.0718 14.6207 16.3204 15.451C16.5739 16.2812 16.9319 16.9077 17.3942 17.3303C17.8566 17.7479 18.406 17.9567 19.0423 17.9567Z" fill="#1D1D1B"/>
</svg>
