<svg width="60" height="84" viewBox="0 0 60 84" fill="none" xmlns="http://www.w3.org/2000/svg">
<rect width="60" height="84" rx="5" fill="#D9D9D9"/>
<path d="M47.0652 50.9119C46.5495 51.9659 45.8379 52.9044 44.9711 53.6736C44.1043 54.4429 43.0992 55.0279 42.0135 55.395C40.9277 55.7622 39.7826 55.9044 38.6437 55.8134C37.5048 55.7224 36.3944 55.4001 35.3761 54.8649C34.5497 54.4209 33.7796 53.8729 33.0835 53.2332L32.9704 52.9561H32.7917L33.0835 53.2271L35.8644 60H24.1395L26.8548 53.3564L27.1228 53.1224H26.9501L26.8548 53.3502C26.2088 53.9373 25.4995 54.4456 24.7409 54.8649C23.7225 55.4203 22.6074 55.7608 21.4606 55.8667C20.3138 55.9726 19.158 55.8417 18.0606 55.4816C16.9631 55.1216 15.9458 54.5396 15.0677 53.7694C14.1897 52.9993 13.4685 52.0563 12.946 50.9954C12.4235 49.9345 12.1102 48.7768 12.0242 47.5895C11.9383 46.4023 12.0814 45.2093 12.4453 44.0797C12.8092 42.9502 13.3866 41.9068 14.1439 41.01C14.9013 40.1132 15.8234 39.3811 16.8568 38.8561C18.5665 38.0151 20.4303 37.5616 22.3233 37.5261C21.7078 36.0135 21.3725 34.3949 21.3348 32.7543C21.3941 30.4117 22.3358 28.1856 23.9592 26.5503C25.5826 24.9151 27.7594 24 30.0257 24C32.2921 24 34.4689 24.9151 36.0923 26.5503C37.7157 28.1856 38.6574 30.4117 38.7167 32.7543C38.6821 34.3822 38.3571 35.9895 37.758 37.4954C39.6654 37.534 41.5422 37.9982 43.2601 38.8561C45.3079 39.9363 46.8581 41.8116 47.5713 44.0712C48.2845 46.3309 48.1025 48.7907 47.0652 50.9119Z" fill="#1D1D1B"/>
<path d="M52.7605 64.7273H55.5048V75.4659C55.4998 76.4503 55.291 77.2979 54.8784 78.0089C54.4657 78.7148 53.889 79.2592 53.1483 79.642C52.4125 80.0199 51.5549 80.2088 50.5755 80.2088C49.6806 80.2088 48.8752 80.0497 48.1593 79.7315C47.4483 79.4084 46.8841 78.9311 46.4664 78.2997C46.0488 77.6683 45.84 76.8828 45.84 75.9432H48.5918C48.5968 76.3558 48.6863 76.7113 48.8603 77.0096C49.0392 77.3079 49.2853 77.5366 49.5985 77.6957C49.9118 77.8548 50.2722 77.9343 50.6799 77.9343C51.1223 77.9343 51.4977 77.8423 51.8059 77.6584C52.1142 77.4695 52.3478 77.1911 52.5069 76.8232C52.671 76.4553 52.7555 76.0028 52.7605 75.4659V64.7273Z" fill="#1D1D1B"/>
<path d="M10.532 4.72727H13.2763V15.4659C13.2713 16.4503 13.0625 17.2979 12.6499 18.0089C12.2372 18.7148 11.6605 19.2592 10.9197 19.642C10.1839 20.0199 9.32635 20.2088 8.34695 20.2088C7.45206 20.2088 6.64666 20.0497 5.93075 19.7315C5.21982 19.4084 4.65554 18.9311 4.23793 18.2997C3.82031 17.6683 3.61151 16.8828 3.61151 15.9432H6.36328C6.36825 16.3558 6.45774 16.7113 6.63175 17.0096C6.81072 17.3079 7.05682 17.5366 7.37003 17.6957C7.68324 17.8548 8.04368 17.9343 8.45135 17.9343C8.89382 17.9343 9.26918 17.8423 9.57742 17.6584C9.88565 17.4695 10.1193 17.1911 10.2784 16.8232C10.4425 16.4553 10.527 16.0028 10.532 15.4659V4.72727Z" fill="#1D1D1B"/>
</svg>
