<svg width="60" height="84" viewBox="0 0 60 84" fill="none" xmlns="http://www.w3.org/2000/svg">
<rect width="60" height="84" rx="5" fill="#D9D9D9"/>
<path d="M47.0652 50.9119C46.5495 51.9659 45.8379 52.9044 44.9711 53.6736C44.1043 54.4429 43.0992 55.0279 42.0135 55.395C40.9277 55.7622 39.7826 55.9044 38.6437 55.8134C37.5048 55.7224 36.3944 55.4001 35.3761 54.8649C34.5497 54.4209 33.7796 53.8729 33.0835 53.2332L32.9704 52.9561H32.7917L33.0835 53.2271L35.8644 60H24.1395L26.8548 53.3564L27.1228 53.1224H26.9501L26.8548 53.3502C26.2088 53.9373 25.4995 54.4456 24.7409 54.8649C23.7225 55.4203 22.6074 55.7608 21.4606 55.8667C20.3138 55.9726 19.158 55.8417 18.0606 55.4816C16.9631 55.1216 15.9458 54.5396 15.0677 53.7694C14.1897 52.9993 13.4685 52.0563 12.946 50.9954C12.4235 49.9345 12.1102 48.7768 12.0242 47.5895C11.9383 46.4023 12.0814 45.2093 12.4453 44.0797C12.8092 42.9502 13.3866 41.9068 14.1439 41.01C14.9013 40.1132 15.8234 39.3811 16.8568 38.8561C18.5665 38.0151 20.4303 37.5616 22.3233 37.5261C21.7078 36.0135 21.3725 34.3949 21.3348 32.7543C21.3941 30.4117 22.3358 28.1856 23.9592 26.5503C25.5826 24.9151 27.7594 24 30.0257 24C32.2921 24 34.4689 24.9151 36.0923 26.5503C37.7157 28.1856 38.6574 30.4117 38.7167 32.7543C38.6821 34.3822 38.3571 35.9895 37.758 37.4954C39.6654 37.534 41.5422 37.9982 43.2601 38.8561C45.3079 39.9363 46.8581 41.8116 47.5713 44.0712C48.2845 46.3309 48.1025 48.7907 47.0652 50.9119Z" fill="#1D1D1B"/>
<path d="M47.9132 74.8693H50.4189L51.9029 76.7933L52.9618 78.0462L55.5048 81.3125H52.8201L51.09 79.12L50.3517 78.076L47.9132 74.8693ZM55.8702 72.3636C55.8702 74.0092 55.562 75.4187 54.9455 76.592C54.334 77.7603 53.4988 78.6552 52.4398 79.2766C51.3858 79.8981 50.1902 80.2088 48.8528 80.2088C47.5154 80.2088 46.3173 79.8981 45.2583 79.2766C44.2044 78.6502 43.3691 77.7528 42.7527 76.5845C42.1412 75.4112 41.8354 74.0043 41.8354 72.3636C41.8354 70.718 42.1412 69.3111 42.7527 68.1428C43.3691 66.9695 44.2044 66.0721 45.2583 65.4506C46.3173 64.8292 47.5154 64.5185 48.8528 64.5185C50.1902 64.5185 51.3858 64.8292 52.4398 65.4506C53.4988 66.0721 54.334 66.9695 54.9455 68.1428C55.562 69.3111 55.8702 70.718 55.8702 72.3636ZM53.0886 72.3636C53.0886 71.2053 52.9071 70.2283 52.5442 69.4329C52.1863 68.6325 51.6891 68.0284 51.0527 67.6207C50.4164 67.2081 49.6831 67.0018 48.8528 67.0018C48.0225 67.0018 47.2892 67.2081 46.6529 67.6207C46.0165 68.0284 45.5169 68.6325 45.1539 69.4329C44.796 70.2283 44.617 71.2053 44.617 72.3636C44.617 73.522 44.796 74.5014 45.1539 75.3018C45.5169 76.0973 46.0165 76.7013 46.6529 77.114C47.2892 77.5217 48.0225 77.7255 48.8528 77.7255C49.6831 77.7255 50.4164 77.5217 51.0527 77.114C51.6891 76.7013 52.1863 76.0973 52.5442 75.3018C52.9071 74.5014 53.0886 73.522 53.0886 72.3636Z" fill="#1D1D1B"/>
<path d="M10.1964 14.8693H12.7021L14.1861 16.7933L15.245 18.0462L17.788 21.3125H15.1033L13.3732 19.12L12.6349 18.076L10.1964 14.8693ZM18.1534 12.3636C18.1534 14.0092 17.8452 15.4187 17.2287 16.592C16.6172 17.7603 15.782 18.6552 14.723 19.2766C13.669 19.8981 12.4734 20.2088 11.136 20.2088C9.79865 20.2088 8.6005 19.8981 7.54155 19.2766C6.48757 18.6502 5.65234 17.7528 5.03587 16.5845C4.42436 15.4112 4.11861 14.0043 4.11861 12.3636C4.11861 10.718 4.42436 9.31108 5.03587 8.14276C5.65234 6.96946 6.48757 6.07209 7.54155 5.45064C8.6005 4.82919 9.79865 4.51847 11.136 4.51847C12.4734 4.51847 13.669 4.82919 14.723 5.45064C15.782 6.07209 16.6172 6.96946 17.2287 8.14276C17.8452 9.31108 18.1534 10.718 18.1534 12.3636ZM15.3718 12.3636C15.3718 11.2053 15.1903 10.2283 14.8274 9.43288C14.4695 8.63246 13.9723 8.02841 13.3359 7.62074C12.6996 7.2081 11.9663 7.00178 11.136 7.00178C10.3058 7.00178 9.57244 7.2081 8.93608 7.62074C8.29972 8.02841 7.80007 8.63246 7.43715 9.43288C7.07919 10.2283 6.90021 11.2053 6.90021 12.3636C6.90021 13.522 7.07919 14.5014 7.43715 15.3018C7.80007 16.0973 8.29972 16.7013 8.93608 17.114C9.57244 17.5217 10.3058 17.7255 11.136 17.7255C11.9663 17.7255 12.6996 17.5217 13.3359 17.114C13.9723 16.7013 14.4695 16.0973 14.8274 15.3018C15.1903 14.5014 15.3718 13.522 15.3718 12.3636Z" fill="#1D1D1B"/>
</svg>
