<svg width="60" height="84" viewBox="0 0 60 84" fill="none" xmlns="http://www.w3.org/2000/svg">
<rect width="60" height="84" rx="5" fill="#D9D9D9"/>
<path d="M47.0652 50.9119C46.5495 51.9659 45.8379 52.9044 44.9711 53.6736C44.1043 54.4429 43.0992 55.0279 42.0135 55.395C40.9277 55.7622 39.7826 55.9044 38.6437 55.8134C37.5048 55.7224 36.3944 55.4001 35.3761 54.8649C34.5497 54.4209 33.7796 53.8729 33.0835 53.2332L32.9704 52.9561H32.7917L33.0835 53.2271L35.8644 60H24.1395L26.8548 53.3564L27.1228 53.1224H26.9501L26.8548 53.3502C26.2088 53.9373 25.4995 54.4456 24.7409 54.8649C23.7225 55.4203 22.6074 55.7608 21.4606 55.8667C20.3138 55.9726 19.158 55.8417 18.0606 55.4816C16.9631 55.1216 15.9458 54.5396 15.0677 53.7694C14.1897 52.9993 13.4685 52.0563 12.946 50.9954C12.4235 49.9345 12.1102 48.7768 12.0242 47.5895C11.9383 46.4023 12.0814 45.2093 12.4453 44.0797C12.8092 42.9502 13.3866 41.9068 14.1439 41.01C14.9013 40.1132 15.8234 39.3811 16.8568 38.8561C18.5665 38.0151 20.4303 37.5616 22.3233 37.5261C21.7078 36.0135 21.3725 34.3949 21.3348 32.7543C21.3941 30.4117 22.3358 28.1856 23.9592 26.5503C25.5826 24.9151 27.7594 24 30.0257 24C32.2921 24 34.4689 24.9151 36.0923 26.5503C37.7157 28.1856 38.6574 30.4117 38.7167 32.7543C38.6821 34.3822 38.3571 35.9895 37.758 37.4954C39.6654 37.534 41.5422 37.9982 43.2601 38.8561C45.3079 39.9363 46.8581 41.8116 47.5713 44.0712C48.2845 46.3309 48.1025 48.7907 47.0652 50.9119Z" fill="#1D1D1B"/>
<path d="M45.2714 80H42.3183L47.695 64.7273H51.1105L56.4948 80H53.5416L49.4624 67.8594H49.3431L45.2714 80ZM45.3683 74.0117H53.4223V76.234H45.3683V74.0117Z" fill="#1D1D1B"/>
<path d="M6.46768 20H3.51456L8.89134 4.72727H12.3068L17.6911 20H14.7379L10.6587 7.85938H10.5394L6.46768 20ZM6.56463 14.0117H14.6186V16.234H6.56463V14.0117Z" fill="#1D1D1B"/>
</svg>
