<svg width="60" height="84" viewBox="0 0 60 84" fill="none" xmlns="http://www.w3.org/2000/svg">
<rect width="60" height="84" rx="5" fill="#D9D9D9"/>
<path d="M47.0652 50.9119C46.5495 51.9659 45.8379 52.9044 44.9711 53.6736C44.1043 54.4429 43.0992 55.0279 42.0135 55.395C40.9277 55.7622 39.7826 55.9044 38.6437 55.8134C37.5048 55.7224 36.3944 55.4001 35.3761 54.8649C34.5497 54.4209 33.7796 53.8729 33.0835 53.2332L32.9704 52.9561H32.7917L33.0835 53.2271L35.8644 60H24.1395L26.8548 53.3564L27.1228 53.1224H26.9501L26.8548 53.3502C26.2088 53.9373 25.4995 54.4456 24.7409 54.8649C23.7225 55.4203 22.6074 55.7608 21.4606 55.8667C20.3138 55.9726 19.158 55.8417 18.0606 55.4816C16.9631 55.1216 15.9458 54.5396 15.0677 53.7694C14.1897 52.9993 13.4685 52.0563 12.946 50.9954C12.4235 49.9345 12.1102 48.7768 12.0242 47.5895C11.9383 46.4023 12.0814 45.2093 12.4453 44.0797C12.8092 42.9502 13.3866 41.9068 14.1439 41.01C14.9013 40.1132 15.8234 39.3811 16.8568 38.8561C18.5665 38.0151 20.4303 37.5616 22.3233 37.5261C21.7078 36.0135 21.3725 34.3949 21.3348 32.7543C21.3941 30.4117 22.3358 28.1856 23.9592 26.5503C25.5826 24.9151 27.7594 24 30.0257 24C32.2921 24 34.4689 24.9151 36.0923 26.5503C37.7157 28.1856 38.6574 30.4117 38.7167 32.7543C38.6821 34.3822 38.3571 35.9895 37.758 37.4954C39.6654 37.534 41.5422 37.9982 43.2601 38.8561C45.3079 39.9363 46.8581 41.8116 47.5713 44.0712C48.2845 46.3309 48.1025 48.7907 47.0652 50.9119Z" fill="#1D1D1B"/>
<path d="M45.3143 80V78.0014L50.6165 72.8036C51.1236 72.2915 51.5462 71.8366 51.8842 71.4389C52.2223 71.0412 52.4759 70.6559 52.6449 70.283C52.8139 69.9102 52.8984 69.5124 52.8984 69.0898C52.8984 68.6076 52.7891 68.195 52.5703 67.8519C52.3516 67.5039 52.0508 67.2354 51.668 67.0465C51.2852 66.8576 50.8501 66.7631 50.3629 66.7631C49.8608 66.7631 49.4208 66.8675 49.043 67.0763C48.6651 67.2802 48.3718 67.571 48.163 67.9489C47.9592 68.3267 47.8572 68.7766 47.8572 69.2987H45.2248C45.2248 68.3292 45.446 67.4865 45.8885 66.7706C46.331 66.0547 46.94 65.5004 47.7156 65.1076C48.4961 64.7148 49.391 64.5185 50.4002 64.5185C51.4244 64.5185 52.3242 64.7099 53.0998 65.0927C53.8754 65.4755 54.4769 66 54.9045 66.6662C55.337 67.3324 55.5533 68.093 55.5533 68.9482C55.5533 69.5199 55.4439 70.0817 55.2251 70.6335C55.0064 71.1854 54.6211 71.7969 54.0692 72.468C53.5224 73.1392 52.7543 73.9521 51.7649 74.9066L49.1325 77.5838V77.6882H55.7844V80H45.3143Z" fill="#1D1D1B"/>
<path d="M4.35724 20V18.0014L9.65945 12.8036C10.1665 12.2915 10.5891 11.8366 10.9272 11.4389C11.2653 11.0412 11.5188 10.6559 11.6879 10.283C11.8569 9.91016 11.9414 9.51243 11.9414 9.08984C11.9414 8.6076 11.832 8.19496 11.6133 7.85192C11.3945 7.50391 11.0938 7.23544 10.7109 7.04652C10.3281 6.8576 9.89311 6.76314 9.4059 6.76314C8.90376 6.76314 8.46378 6.86754 8.08594 7.07635C7.7081 7.28018 7.41477 7.57102 7.20597 7.94886C7.00213 8.3267 6.90021 8.77663 6.90021 9.29865H4.26776C4.26776 8.32919 4.48899 7.48651 4.93146 6.7706C5.37393 6.05469 5.98295 5.50035 6.75852 5.1076C7.53906 4.71484 8.43395 4.51847 9.44318 4.51847C10.4673 4.51847 11.3672 4.70987 12.1428 5.09268C12.9183 5.4755 13.5199 6 13.9474 6.66619C14.38 7.33239 14.5962 8.09304 14.5962 8.94815C14.5962 9.51989 14.4869 10.0817 14.2681 10.6335C14.0494 11.1854 13.6641 11.7969 13.1122 12.468C12.5653 13.1392 11.7972 13.9521 10.8079 14.9066L8.17543 17.5838V17.6882H14.8274V20H4.35724Z" fill="#1D1D1B"/>
</svg>
