<svg width="60" height="84" viewBox="0 0 60 84" fill="none" xmlns="http://www.w3.org/2000/svg">
<rect width="60" height="84" rx="5" fill="#D9D9D9"/>
<path d="M47.0652 50.9119C46.5495 51.9659 45.8379 52.9044 44.9711 53.6736C44.1043 54.4429 43.0992 55.0279 42.0135 55.395C40.9277 55.7622 39.7826 55.9044 38.6437 55.8134C37.5048 55.7224 36.3944 55.4001 35.3761 54.8649C34.5497 54.4209 33.7796 53.8729 33.0835 53.2332L32.9704 52.9561H32.7917L33.0835 53.2271L35.8644 60H24.1395L26.8548 53.3564L27.1228 53.1224H26.9501L26.8548 53.3502C26.2088 53.9373 25.4995 54.4456 24.7409 54.8649C23.7225 55.4203 22.6074 55.7608 21.4606 55.8667C20.3138 55.9726 19.158 55.8417 18.0606 55.4816C16.9631 55.1216 15.9458 54.5396 15.0677 53.7694C14.1897 52.9993 13.4685 52.0563 12.946 50.9954C12.4235 49.9345 12.1102 48.7768 12.0242 47.5895C11.9383 46.4023 12.0814 45.2093 12.4453 44.0797C12.8092 42.9502 13.3866 41.9068 14.1439 41.01C14.9013 40.1132 15.8234 39.3811 16.8568 38.8561C18.5665 38.0151 20.4303 37.5616 22.3233 37.5261C21.7078 36.0135 21.3725 34.3949 21.3348 32.7543C21.3941 30.4117 22.3358 28.1856 23.9592 26.5503C25.5826 24.9151 27.7594 24 30.0257 24C32.2921 24 34.4689 24.9151 36.0923 26.5503C37.7157 28.1856 38.6574 30.4117 38.7167 32.7543C38.6821 34.3822 38.3571 35.9895 37.758 37.4954C39.6654 37.534 41.5422 37.9982 43.2601 38.8561C45.3079 39.9363 46.8581 41.8116 47.5713 44.0712C48.2845 46.3309 48.1025 48.7907 47.0652 50.9119Z" fill="#1D1D1B"/>
<path d="M50.1597 80.2088C49.0858 80.2088 48.1313 80.0249 47.2961 79.657C46.4658 79.2891 45.8096 78.777 45.3273 78.1207C44.8451 77.4645 44.589 76.7063 44.5592 75.8462H47.3632C47.3881 76.2589 47.5248 76.6193 47.7733 76.9276C48.0219 77.2308 48.3525 77.467 48.7652 77.636C49.1778 77.805 49.6402 77.8896 50.1523 77.8896C50.6991 77.8896 51.1839 77.7951 51.6064 77.6062C52.029 77.4123 52.3596 77.1438 52.5983 76.8008C52.8369 76.4577 52.9537 76.0625 52.9488 75.6151C52.9537 75.1527 52.8344 74.745 52.5908 74.392C52.3472 74.0391 51.9942 73.7631 51.5319 73.5643C51.0745 73.3654 50.5226 73.266 49.8763 73.266H48.5265V71.1332H49.8763C50.4083 71.1332 50.8731 71.0412 51.2709 70.8572C51.6736 70.6733 51.9893 70.4148 52.218 70.0817C52.4466 69.7436 52.5585 69.3533 52.5535 68.9109C52.5585 68.4783 52.4616 68.103 52.2627 67.7848C52.0688 67.4616 51.7929 67.2106 51.4349 67.0316C51.0819 66.8526 50.6668 66.7631 50.1895 66.7631C49.7222 66.7631 49.2897 66.8477 48.892 67.0167C48.4942 67.1857 48.1736 67.4268 47.93 67.7401C47.6863 68.0483 47.5571 68.4162 47.5422 68.8438H44.8799C44.8998 67.9886 45.1459 67.2379 45.6182 66.5916C46.0954 65.9403 46.7318 65.4332 47.5273 65.0703C48.3227 64.7024 49.2151 64.5185 50.2045 64.5185C51.2236 64.5185 52.1086 64.7099 52.8593 65.0927C53.615 65.4705 54.1991 65.9801 54.6118 66.6214C55.0244 67.2628 55.2307 67.9712 55.2307 68.7468C55.2357 69.6069 54.9822 70.3278 54.4701 70.9094C53.963 71.4911 53.2968 71.8714 52.4715 72.0504V72.1697C53.5454 72.3189 54.3682 72.7166 54.9399 73.3629C55.5166 74.0043 55.8025 74.8022 55.7975 75.7567C55.7975 76.6119 55.5539 77.3775 55.0667 78.0536C54.5844 78.7248 53.9182 79.2518 53.0681 79.6346C52.2229 80.0174 51.2535 80.2088 50.1597 80.2088Z" fill="#1D1D1B"/>
<path d="M9.83842 20.2088C8.76456 20.2088 7.81001 20.0249 6.97479 19.657C6.14453 19.2891 5.48828 18.777 5.00604 18.1207C4.52379 17.4645 4.26776 16.7063 4.23793 15.8462H7.0419C7.06676 16.2589 7.20348 16.6193 7.45206 16.9276C7.70064 17.2308 8.03125 17.467 8.44389 17.636C8.85653 17.805 9.31889 17.8896 9.83097 17.8896C10.3778 17.8896 10.8626 17.7951 11.2852 17.6062C11.7077 17.4123 12.0384 17.1438 12.277 16.8008C12.5156 16.4577 12.6325 16.0625 12.6275 15.6151C12.6325 15.1527 12.5131 14.745 12.2695 14.392C12.0259 14.0391 11.6729 13.7631 11.2106 13.5643C10.7532 13.3654 10.2013 13.266 9.55504 13.266H8.20526V11.1332H9.55504C10.087 11.1332 10.5518 11.0412 10.9496 10.8572C11.3523 10.6733 11.668 10.4148 11.8967 10.0817C12.1254 9.74361 12.2372 9.35334 12.2322 8.91087C12.2372 8.47834 12.1403 8.10298 11.9414 7.7848C11.7475 7.46165 11.4716 7.21058 11.1136 7.0316C10.7607 6.85263 10.3455 6.76314 9.86825 6.76314C9.40092 6.76314 8.9684 6.84766 8.57067 7.01669C8.17294 7.18572 7.85227 7.42685 7.60866 7.74006C7.36506 8.04829 7.2358 8.41619 7.22088 8.84375H4.55859C4.57848 7.98864 4.82457 7.23793 5.29688 6.59162C5.77415 5.94034 6.41051 5.43324 7.20597 5.07031C8.00142 4.70241 8.89382 4.51847 9.88317 4.51847C10.9023 4.51847 11.7873 4.70987 12.538 5.09268C13.2937 5.47052 13.8778 5.98011 14.2905 6.62145C14.7031 7.26278 14.9094 7.97124 14.9094 8.7468C14.9144 9.60689 14.6609 10.3278 14.1488 10.9094C13.6417 11.4911 12.9755 11.8714 12.1502 12.0504V12.1697C13.2241 12.3189 14.0469 12.7166 14.6186 13.3629C15.1953 14.0043 15.4812 14.8022 15.4762 15.7567C15.4762 16.6119 15.2326 17.3775 14.7454 18.0536C14.2631 18.7248 13.5969 19.2518 12.7468 19.6346C11.9016 20.0174 10.9322 20.2088 9.83842 20.2088Z" fill="#1D1D1B"/>
</svg>
