<svg width="60" height="84" viewBox="0 0 60 84" fill="none" xmlns="http://www.w3.org/2000/svg">
<rect width="60" height="84" rx="5" fill="#D9D9D9"/>
<path d="M47.0652 50.9119C46.5495 51.9659 45.8379 52.9044 44.9711 53.6736C44.1043 54.4429 43.0992 55.0279 42.0135 55.395C40.9277 55.7622 39.7826 55.9044 38.6437 55.8134C37.5048 55.7224 36.3944 55.4001 35.3761 54.8649C34.5497 54.4209 33.7796 53.8729 33.0835 53.2332L32.9704 52.9561H32.7917L33.0835 53.2271L35.8644 60H24.1395L26.8548 53.3564L27.1228 53.1224H26.9501L26.8548 53.3502C26.2088 53.9373 25.4995 54.4456 24.7409 54.8649C23.7225 55.4203 22.6074 55.7608 21.4606 55.8667C20.3138 55.9726 19.158 55.8417 18.0606 55.4816C16.9631 55.1216 15.9458 54.5396 15.0677 53.7694C14.1897 52.9993 13.4685 52.0563 12.946 50.9954C12.4235 49.9345 12.1102 48.7768 12.0242 47.5895C11.9383 46.4023 12.0814 45.2093 12.4453 44.0797C12.8092 42.9502 13.3866 41.9068 14.1439 41.01C14.9013 40.1132 15.8234 39.3811 16.8568 38.8561C18.5665 38.0151 20.4303 37.5616 22.3233 37.5261C21.7078 36.0135 21.3725 34.3949 21.3348 32.7543C21.3941 30.4117 22.3358 28.1856 23.9592 26.5503C25.5826 24.9151 27.7594 24 30.0257 24C32.2921 24 34.4689 24.9151 36.0923 26.5503C37.7157 28.1856 38.6574 30.4117 38.7167 32.7543C38.6821 34.3822 38.3571 35.9895 37.758 37.4954C39.6654 37.534 41.5422 37.9982 43.2601 38.8561C45.3079 39.9363 46.8581 41.8116 47.5713 44.0712C48.2845 46.3309 48.1025 48.7907 47.0652 50.9119Z" fill="#1D1D1B"/>
<path d="M50.3778 80.2088C49.3835 80.2088 48.4936 80.0224 47.7081 79.6495C46.9226 79.2717 46.2987 78.7546 45.8363 78.0984C45.3789 77.4421 45.1353 76.6914 45.1055 75.8462H47.7901C47.8398 76.4727 48.1108 76.9847 48.603 77.3825C49.0952 77.7752 49.6868 77.9716 50.3778 77.9716C50.9197 77.9716 51.402 77.8473 51.8246 77.5987C52.2472 77.3501 52.5803 77.0046 52.8239 76.5621C53.0675 76.1197 53.1868 75.6151 53.1818 75.0483C53.1868 74.4716 53.065 73.9595 52.8164 73.5121C52.5678 73.0646 52.2273 72.7141 51.7947 72.4606C51.3622 72.2021 50.8651 72.0728 50.3033 72.0728C49.8459 72.0678 49.396 72.1523 48.9535 72.3263C48.511 72.5004 48.1605 72.729 47.902 73.0124L45.4038 72.6023L46.2017 64.7273H55.0611V67.0391H48.4911L48.0511 71.0884H48.1406C48.424 70.7553 48.8242 70.4794 49.3413 70.2607C49.8583 70.0369 50.4251 69.9251 51.0415 69.9251C51.9663 69.9251 52.7915 70.1438 53.5174 70.5813C54.2433 71.0138 54.815 71.6104 55.2326 72.3711C55.6502 73.1317 55.859 74.0018 55.859 74.9812C55.859 75.9904 55.6254 76.8903 55.158 77.6808C54.6957 78.4663 54.0518 79.0852 53.2266 79.5376C52.4062 79.9851 51.4567 80.2088 50.3778 80.2088Z" fill="#1D1D1B"/>
<path d="M9.6669 20.2088C8.67259 20.2088 7.78267 20.0224 6.99716 19.6495C6.21165 19.2717 5.58771 18.7546 5.12536 18.0984C4.66797 17.4421 4.42436 16.6914 4.39453 15.8462H7.07919C7.12891 16.4727 7.39986 16.9847 7.89205 17.3825C8.38423 17.7752 8.97585 17.9716 9.6669 17.9716C10.2088 17.9716 10.6911 17.8473 11.1136 17.5987C11.5362 17.3501 11.8693 17.0046 12.1129 16.5621C12.3565 16.1197 12.4759 15.6151 12.4709 15.0483C12.4759 14.4716 12.354 13.9595 12.1055 13.5121C11.8569 13.0646 11.5163 12.7141 11.0838 12.4606C10.6513 12.2021 10.1541 12.0728 9.59233 12.0728C9.13494 12.0678 8.68501 12.1523 8.24254 12.3263C7.80007 12.5004 7.44957 12.729 7.19105 13.0124L4.69283 12.6023L5.49077 4.72727H14.3501V7.03906H7.78018L7.3402 11.0884H7.42969C7.71307 10.7553 8.11328 10.4794 8.63033 10.2607C9.14737 10.0369 9.71413 9.92507 10.3306 9.92507C11.2553 9.92507 12.0806 10.1438 12.8065 10.5813C13.5323 11.0138 14.104 11.6104 14.5217 12.3711C14.9393 13.1317 15.1481 14.0018 15.1481 14.9812C15.1481 15.9904 14.9144 16.8903 14.4471 17.6808C13.9847 18.4663 13.3409 19.0852 12.5156 19.5376C11.6953 19.9851 10.7457 20.2088 9.6669 20.2088Z" fill="#1D1D1B"/>
</svg>
