<svg width="60" height="84" viewBox="0 0 60 84" fill="none" xmlns="http://www.w3.org/2000/svg">
<rect width="60" height="84" rx="5" fill="#D9D9D9"/>
<path d="M42 42L29.9974 60L18 42L29.9974 24L42 42Z" fill="#BE1622"/>
<path d="M41.5226 64.7273V80H38.7559V67.4194H38.6664L35.0943 69.7013V67.1658L38.8901 64.7273H41.5226ZM49.9956 80.2908C48.7677 80.2908 47.7137 79.9801 46.8337 79.3587C45.9587 78.7322 45.2851 77.8299 44.8128 76.6516C44.3454 75.4684 44.1118 74.044 44.1118 72.3786C44.1167 70.7131 44.3529 69.2962 44.8202 68.1278C45.2925 66.9545 45.9662 66.0597 46.8412 65.4432C47.7211 64.8267 48.7726 64.5185 49.9956 64.5185C51.2187 64.5185 52.2702 64.8267 53.1501 65.4432C54.0301 66.0597 54.7037 66.9545 55.1711 68.1278C55.6434 69.3011 55.8795 70.718 55.8795 72.3786C55.8795 74.049 55.6434 75.4759 55.1711 76.6591C54.7037 77.8374 54.0301 78.7372 53.1501 79.3587C52.2751 79.9801 51.2236 80.2908 49.9956 80.2908ZM49.9956 77.9567C50.9502 77.9567 51.7034 77.4869 52.2552 76.5472C52.8121 75.6026 53.0905 74.2131 53.0905 72.3786C53.0905 71.1655 52.9637 70.1463 52.7101 69.321C52.4566 68.4957 52.0986 67.8743 51.6363 67.4567C51.1739 67.0341 50.627 66.8228 49.9956 66.8228C49.0461 66.8228 48.2954 67.2951 47.7435 68.2397C47.1917 69.1793 46.9133 70.5589 46.9083 72.3786C46.9033 73.5966 47.0251 74.6207 47.2737 75.451C47.5273 76.2812 47.8852 76.9077 48.3476 77.3303C48.8099 77.7479 49.3593 77.9567 49.9956 77.9567Z" fill="#BE1622"/>
<path d="M10.5692 4.72727V20H7.80256V7.41939H7.71307L4.14098 9.70135V7.16584L7.93679 4.72727H10.5692ZM19.0423 20.2908C17.8143 20.2908 16.7604 19.9801 15.8804 19.3587C15.0054 18.7322 14.3317 17.8299 13.8594 16.6516C13.3921 15.4684 13.1585 14.044 13.1585 12.3786C13.1634 10.7131 13.3996 9.29616 13.8669 8.12784C14.3392 6.95454 15.0129 6.05966 15.8879 5.44318C16.7678 4.8267 17.8193 4.51847 19.0423 4.51847C20.2653 4.51847 21.3168 4.8267 22.1968 5.44318C23.0768 6.05966 23.7504 6.95454 24.2178 8.12784C24.6901 9.30114 24.9262 10.718 24.9262 12.3786C24.9262 14.049 24.6901 15.4759 24.2178 16.6591C23.7504 17.8374 23.0768 18.7372 22.1968 19.3587C21.3218 19.9801 20.2703 20.2908 19.0423 20.2908ZM19.0423 17.9567C19.9969 17.9567 20.7501 17.4869 21.3019 16.5472C21.8587 15.6026 22.1371 14.2131 22.1371 12.3786C22.1371 11.1655 22.0104 10.1463 21.7568 9.32102C21.5033 8.49574 21.1453 7.87429 20.683 7.45668C20.2206 7.03409 19.6737 6.8228 19.0423 6.8228C18.0928 6.8228 17.342 7.2951 16.7902 8.2397C16.2384 9.17933 15.9599 10.5589 15.955 12.3786C15.95 13.5966 16.0718 14.6207 16.3204 15.451C16.5739 16.2812 16.9319 16.9077 17.3942 17.3303C17.8566 17.7479 18.406 17.9567 19.0423 17.9567Z" fill="#BE1622"/>
</svg>
