<svg width="60" height="84" viewBox="0 0 60 84" fill="none" xmlns="http://www.w3.org/2000/svg">
<rect width="60" height="84" rx="5" fill="#D9D9D9"/>
<path d="M42 42L29.9974 60L18 42L29.9974 24L42 42Z" fill="#BE1622"/>
<path d="M44.095 77.1662V74.9663L50.5755 64.7273H52.41V67.8594H51.2914L46.9288 74.7724V74.8917H55.9746V77.1662H44.095ZM51.3809 80V76.495L51.4107 75.5107V64.7273H54.0208V80H51.3809Z" fill="#BE1622"/>
<path d="M4.08132 17.1662V14.9663L10.5618 4.72727H12.3963V7.85938H11.2777L6.91513 14.7724V14.8917H15.9609V17.1662H4.08132ZM11.3672 20V16.495L11.397 15.5107V4.72727H14.0071V20H11.3672Z" fill="#BE1622"/>
</svg>
