<svg width="60" height="84" viewBox="0 0 60 84" fill="none" xmlns="http://www.w3.org/2000/svg">
<rect width="60" height="84" rx="5" fill="#D9D9D9"/>
<path d="M42 42L29.9974 60L18 42L29.9974 24L42 42Z" fill="#BE1622"/>
<path d="M50.3331 80.2088C49.6023 80.2038 48.8888 80.0771 48.1928 79.8285C47.4968 79.5749 46.8704 79.1648 46.3136 78.598C45.7567 78.0263 45.3143 77.2681 44.9862 76.3235C44.658 75.3739 44.4964 74.1982 44.5014 72.7962C44.5014 71.4886 44.6406 70.3228 44.919 69.2987C45.1974 68.2745 45.5977 67.4094 46.1197 66.7035C46.6417 65.9925 47.2706 65.4506 48.0064 65.0778C48.7472 64.7049 49.5749 64.5185 50.4897 64.5185C51.4492 64.5185 52.2994 64.7074 53.0401 65.0852C53.7859 65.4631 54.3874 65.9801 54.8448 66.6364C55.3022 67.2876 55.5856 68.0234 55.695 68.8438H52.973C52.8338 68.2571 52.5479 67.7898 52.1154 67.4418C51.6879 67.0888 51.146 66.9123 50.4897 66.9123C49.4308 66.9123 48.6154 67.3722 48.0437 68.2919C47.4769 69.2116 47.1911 70.4744 47.1861 72.0803H47.2905C47.5341 71.6428 47.8498 71.2674 48.2376 70.9542C48.6254 70.641 49.0629 70.3999 49.5501 70.2308C50.0423 70.0568 50.5618 69.9698 51.1087 69.9698C52.0036 69.9698 52.8065 70.1836 53.5174 70.6112C54.2333 71.0387 54.8001 71.6278 55.2177 72.3786C55.6353 73.1243 55.8416 73.9794 55.8366 74.9439C55.8416 75.9482 55.6129 76.8505 55.1506 77.6509C54.6882 78.4464 54.0444 79.0728 53.2191 79.5302C52.3938 79.9876 51.4318 80.2138 50.3331 80.2088ZM50.3182 77.9716C50.8601 77.9716 51.3448 77.8398 51.7724 77.5763C52.1999 77.3129 52.538 76.9574 52.7866 76.5099C53.0352 76.0625 53.157 75.5604 53.152 75.0036C53.157 74.4567 53.0376 73.962 52.794 73.5195C52.5554 73.0771 52.2248 72.7266 51.8022 72.468C51.3796 72.2095 50.8974 72.0803 50.3555 72.0803C49.9528 72.0803 49.5774 72.1573 49.2294 72.3114C48.8814 72.4656 48.5781 72.6793 48.3196 72.9528C48.0611 73.2212 47.8572 73.5344 47.7081 73.8924C47.5639 74.2454 47.4893 74.6232 47.4844 75.0259C47.4893 75.5579 47.6136 76.0476 47.8572 76.495C48.1009 76.9425 48.4364 77.3004 48.864 77.5689C49.2915 77.8374 49.7763 77.9716 50.3182 77.9716Z" fill="#BE1622"/>
<path d="M9.95028 20.2088C9.21946 20.2038 8.50604 20.0771 7.81001 19.8285C7.11399 19.5749 6.48757 19.1648 5.93075 18.598C5.37393 18.0263 4.93146 17.2681 4.60334 16.3235C4.27521 15.3739 4.11364 14.1982 4.11861 12.7962C4.11861 11.4886 4.25781 10.3228 4.53622 9.29865C4.81463 8.2745 5.21484 7.40945 5.73686 6.70348C6.25888 5.99254 6.88778 5.45064 7.62358 5.07777C8.36435 4.7049 9.19212 4.51847 10.1069 4.51847C11.0664 4.51847 11.9165 4.70739 12.6573 5.08523C13.4031 5.46307 14.0046 5.98011 14.462 6.63636C14.9194 7.28764 15.2028 8.02344 15.3121 8.84375H12.5902C12.451 8.2571 12.1651 7.78977 11.7326 7.44176C11.305 7.08878 10.7631 6.91229 10.1069 6.91229C9.04794 6.91229 8.2326 7.37216 7.66087 8.2919C7.09411 9.21165 6.80824 10.4744 6.80327 12.0803H6.90767C7.15128 11.6428 7.46697 11.2674 7.85476 10.9542C8.24254 10.641 8.68004 10.3999 9.16726 10.2308C9.65945 10.0568 10.179 9.96982 10.7259 9.96982C11.6207 9.96982 12.4237 10.1836 13.1346 10.6112C13.8505 11.0387 14.4173 11.6278 14.8349 12.3786C15.2525 13.1243 15.4588 13.9794 15.4538 14.9439C15.4588 15.9482 15.2301 16.8505 14.7678 17.6509C14.3054 18.4464 13.6616 19.0728 12.8363 19.5302C12.011 19.9876 11.049 20.2138 9.95028 20.2088ZM9.93537 17.9716C10.4773 17.9716 10.962 17.8398 11.3896 17.5763C11.8171 17.3129 12.1552 16.9574 12.4038 16.5099C12.6523 16.0625 12.7741 15.5604 12.7692 15.0036C12.7741 14.4567 12.6548 13.962 12.4112 13.5195C12.1726 13.0771 11.842 12.7266 11.4194 12.468C10.9968 12.2095 10.5146 12.0803 9.97266 12.0803C9.56996 12.0803 9.1946 12.1573 8.84659 12.3114C8.49858 12.4656 8.19531 12.6793 7.93679 12.9528C7.67827 13.2212 7.47443 13.5344 7.32528 13.8924C7.18111 14.2454 7.10653 14.6232 7.10156 15.0259C7.10653 15.5579 7.23082 16.0476 7.47443 16.495C7.71804 16.9425 8.05362 17.3004 8.48118 17.5689C8.90874 17.8374 9.39347 17.9716 9.93537 17.9716Z" fill="#BE1622"/>
</svg>
