<svg width="60" height="84" viewBox="0 0 60 84" fill="none" xmlns="http://www.w3.org/2000/svg">
<rect width="60" height="84" rx="5" fill="#D9D9D9"/>
<path d="M42 42L29.9974 60L18 42L29.9974 24L42 42Z" fill="#BE1622"/>
<path d="M50.2306 80.2088C49.1219 80.2088 48.1375 80.0224 47.2774 79.6495C46.4223 79.2766 45.7512 78.767 45.2639 78.1207C44.7817 77.4695 44.5431 76.7312 44.548 75.9059C44.5431 75.2646 44.6823 74.6754 44.9656 74.1385C45.249 73.6016 45.6318 73.1541 46.1141 72.7962C46.6013 72.4332 47.1432 72.2021 47.7398 72.1026V71.9982C46.9543 71.8242 46.3179 71.424 45.8307 70.7976C45.3485 70.1662 45.1098 69.4379 45.1148 68.6126C45.1098 67.8271 45.3286 67.1261 45.771 66.5096C46.2135 65.8931 46.82 65.4084 47.5906 65.0554C48.3612 64.6974 49.2412 64.5185 50.2306 64.5185C51.21 64.5185 52.0825 64.6974 52.8481 65.0554C53.6187 65.4084 54.2252 65.8931 54.6677 66.5096C55.1151 67.1261 55.3389 67.8271 55.3389 68.6126C55.3389 69.4379 55.0928 70.1662 54.6006 70.7976C54.1134 71.424 53.4845 71.8242 52.7139 71.9982V72.1026C53.3105 72.2021 53.8474 72.4332 54.3247 72.7962C54.8069 73.1541 55.1897 73.6016 55.4731 74.1385C55.7615 74.6754 55.9056 75.2646 55.9056 75.9059C55.9056 76.7312 55.662 77.4695 55.1748 78.1207C54.6876 78.767 54.0164 79.2766 53.1613 79.6495C52.3112 80.0224 51.3343 80.2088 50.2306 80.2088ZM50.2306 78.076C50.8023 78.076 51.2995 77.979 51.722 77.7852C52.1446 77.5863 52.4727 77.3079 52.7064 76.9499C52.9401 76.592 53.0594 76.1793 53.0644 75.712C53.0594 75.2248 52.9326 74.7947 52.684 74.4219C52.4404 74.044 52.1048 73.7482 51.6773 73.5344C51.2547 73.3207 50.7725 73.2138 50.2306 73.2138C49.6837 73.2138 49.1965 73.3207 48.7689 73.5344C48.3414 73.7482 48.0033 74.044 47.7547 74.4219C47.5111 74.7947 47.3918 75.2248 47.3968 75.712C47.3918 76.1793 47.5061 76.592 47.7398 76.9499C47.9735 77.3029 48.3016 77.5788 48.7242 77.7777C49.1517 77.9766 49.6539 78.076 50.2306 78.076ZM50.2306 71.1183C50.6979 71.1183 51.1105 71.0238 51.4685 70.8349C51.8314 70.646 52.1173 70.3825 52.3261 70.0444C52.5349 69.7063 52.6418 69.3161 52.6468 68.8736C52.6418 68.4361 52.5374 68.0533 52.3335 67.7251C52.1297 67.392 51.8463 67.136 51.4834 66.957C51.1205 66.7731 50.7029 66.6811 50.2306 66.6811C49.7483 66.6811 49.3232 66.7731 48.9553 66.957C48.5924 67.136 48.309 67.392 48.1052 67.7251C47.9063 68.0533 47.8094 68.4361 47.8144 68.8736C47.8094 69.3161 47.9088 69.7063 48.1127 70.0444C48.3215 70.3775 48.6073 70.641 48.9703 70.8349C49.3382 71.0238 49.7583 71.1183 50.2306 71.1183Z" fill="#BE1622"/>
<path d="M9.78622 20.2088C8.67756 20.2088 7.69318 20.0224 6.8331 19.6495C5.97798 19.2766 5.30682 18.767 4.8196 18.1207C4.33736 17.4695 4.09872 16.7312 4.10369 15.9059C4.09872 15.2646 4.23793 14.6754 4.52131 14.1385C4.80469 13.6016 5.1875 13.1541 5.66974 12.7962C6.15696 12.4332 6.69886 12.2021 7.29545 12.1026V11.9982C6.50994 11.8242 5.87358 11.424 5.38636 10.7976C4.90412 10.1662 4.66548 9.43785 4.67045 8.61257C4.66548 7.82706 4.88423 7.12607 5.3267 6.50959C5.76918 5.89311 6.37571 5.40838 7.14631 5.0554C7.9169 4.69744 8.79688 4.51847 9.78622 4.51847C10.7656 4.51847 11.6381 4.69744 12.4038 5.0554C13.1744 5.40838 13.7809 5.89311 14.2234 6.50959C14.6708 7.12607 14.8945 7.82706 14.8945 8.61257C14.8945 9.43785 14.6484 10.1662 14.1562 10.7976C13.669 11.424 13.0401 11.8242 12.2695 11.9982V12.1026C12.8661 12.2021 13.4031 12.4332 13.8803 12.7962C14.3626 13.1541 14.7454 13.6016 15.0288 14.1385C15.3171 14.6754 15.4613 15.2646 15.4613 15.9059C15.4613 16.7312 15.2177 17.4695 14.7305 18.1207C14.2433 18.767 13.5721 19.2766 12.717 19.6495C11.8668 20.0224 10.8899 20.2088 9.78622 20.2088ZM9.78622 18.076C10.358 18.076 10.8551 17.979 11.2777 17.7852C11.7003 17.5863 12.0284 17.3079 12.2621 16.9499C12.4957 16.592 12.6151 16.1793 12.62 15.712C12.6151 15.2248 12.4883 14.7947 12.2397 14.4219C11.9961 14.044 11.6605 13.7482 11.233 13.5344C10.8104 13.3207 10.3281 13.2138 9.78622 13.2138C9.23935 13.2138 8.75213 13.3207 8.32457 13.5344C7.89702 13.7482 7.55895 14.044 7.31037 14.4219C7.06676 14.7947 6.94744 15.2248 6.95241 15.712C6.94744 16.1793 7.06179 16.592 7.29545 16.9499C7.52912 17.3029 7.85724 17.5788 8.27983 17.7777C8.70739 17.9766 9.20952 18.076 9.78622 18.076ZM9.78622 11.1183C10.2536 11.1183 10.6662 11.0238 11.0241 10.8349C11.3871 10.646 11.6729 10.3825 11.8817 10.0444C12.0906 9.70632 12.1974 9.31605 12.2024 8.87358C12.1974 8.43608 12.093 8.05327 11.8892 7.72514C11.6854 7.39204 11.402 7.13601 11.0391 6.95703C10.6761 6.77308 10.2585 6.68111 9.78622 6.68111C9.30398 6.68111 8.87891 6.77308 8.51101 6.95703C8.14808 7.13601 7.8647 7.39204 7.66087 7.72514C7.462 8.05327 7.36506 8.43608 7.37003 8.87358C7.36506 9.31605 7.46449 9.70632 7.66832 10.0444C7.87713 10.3775 8.163 10.641 8.52592 10.8349C8.89382 11.0238 9.31392 11.1183 9.78622 11.1183Z" fill="#BE1622"/>
</svg>
