<svg width="60" height="84" viewBox="0 0 60 84" fill="none" xmlns="http://www.w3.org/2000/svg">
<rect width="60" height="84" rx="5" fill="#D9D9D9"/>
<path d="M45.3079 42.1393C47.0453 40.0448 48 37.3793 48 34.6232C48 31.8671 47.0453 29.2016 45.3079 27.1071C44.2509 25.8204 42.8568 24.8749 41.2923 24.3838C39.7278 23.8927 38.0593 23.8768 36.4863 24.3379C34.3692 25.0562 32.581 26.5499 31.4601 28.5362L29.9534 31.0445L28.4927 28.6074C26.9918 26.099 24.6512 24.3497 22.0231 24.0473C20.6704 23.9024 19.3037 24.0915 18.0358 24.5987C16.7678 25.106 15.6351 25.917 14.7312 26.9648C11.0277 31.1157 11.137 38.1248 14.7772 42.335L30.0339 60L45.3079 42.1393Z" fill="#BE1622"/>
<path d="M44.2945 80V64.7273H47.0612V71.7447H47.2476L53.2061 64.7273H56.5843L50.678 71.5806L56.6365 80H53.3105L48.754 73.4524L47.0612 75.451V80H44.2945Z" fill="#BE1622"/>
<path d="M4.50639 20V4.72727H7.27308V11.7447H7.45952L13.418 4.72727H16.7962L10.8899 11.5806L16.8484 20H13.5224L8.96591 13.4524L7.27308 15.451V20H4.50639Z" fill="#BE1622"/>
</svg>
