<svg width="60" height="84" viewBox="0 0 60 84" fill="none" xmlns="http://www.w3.org/2000/svg">
<rect width="60" height="84" rx="5" fill="#D9D9D9"/>
<path d="M45.3079 42.1393C47.0453 40.0448 48 37.3793 48 34.6232C48 31.8671 47.0453 29.2016 45.3079 27.1071C44.2509 25.8204 42.8568 24.8749 41.2923 24.3838C39.7278 23.8927 38.0593 23.8768 36.4863 24.3379C34.3692 25.0562 32.581 26.5499 31.4601 28.5362L29.9534 31.0445L28.4927 28.6074C26.9918 26.099 24.6512 24.3497 22.0231 24.0473C20.6704 23.9024 19.3037 24.0915 18.0358 24.5987C16.7678 25.106 15.6351 25.917 14.7312 26.9648C11.0277 31.1157 11.137 38.1248 14.7772 42.335L30.0339 60L45.3079 42.1393Z" fill="#BE1622"/>
<path d="M45.2714 80H42.3183L47.695 64.7273H51.1105L56.4948 80H53.5416L49.4624 67.8594H49.3431L45.2714 80ZM45.3683 74.0117H53.4223V76.234H45.3683V74.0117Z" fill="#BE1622"/>
<path d="M6.46768 20H3.51456L8.89134 4.72727H12.3068L17.6911 20H14.7379L10.6587 7.85938H10.5394L6.46768 20ZM6.56463 14.0117H14.6186V16.234H6.56463V14.0117Z" fill="#BE1622"/>
</svg>
