<svg width="60" height="84" viewBox="0 0 60 84" fill="none" xmlns="http://www.w3.org/2000/svg">
<rect width="60" height="84" rx="5" fill="#D9D9D9"/>
<path d="M45.3079 42.1393C47.0453 40.0448 48 37.3793 48 34.6232C48 31.8671 47.0453 29.2016 45.3079 27.1071C44.2509 25.8204 42.8568 24.8749 41.2923 24.3838C39.7278 23.8927 38.0593 23.8768 36.4863 24.3379C34.3692 25.0562 32.581 26.5499 31.4601 28.5362L29.9534 31.0445L28.4927 28.6074C26.9918 26.099 24.6512 24.3497 22.0231 24.0473C20.6704 23.9024 19.3037 24.0915 18.0358 24.5987C16.7678 25.106 15.6351 25.917 14.7312 26.9648C11.0277 31.1157 11.137 38.1248 14.7772 42.335L30.0339 60L45.3079 42.1393Z" fill="#BE1622"/>
<path d="M44.095 77.1662V74.9663L50.5755 64.7273H52.41V67.8594H51.2914L46.9288 74.7724V74.8917H55.9746V77.1662H44.095ZM51.3809 80V76.495L51.4107 75.5107V64.7273H54.0208V80H51.3809Z" fill="#BE1622"/>
<path d="M4.08132 17.1662V14.9663L10.5618 4.72727H12.3963V7.85938H11.2777L6.91513 14.7724V14.8917H15.9609V17.1662H4.08132ZM11.3672 20V16.495L11.397 15.5107V4.72727H14.0071V20H11.3672Z" fill="#BE1622"/>
</svg>
