<svg width="60" height="84" viewBox="0 0 60 84" fill="none" xmlns="http://www.w3.org/2000/svg">
<rect width="60" height="84" rx="5" fill="#D9D9D9"/>
<path d="M45.263 52.8749C44.3597 53.9431 43.2276 54.7699 41.9601 55.287C40.6926 55.804 39.3263 55.9964 37.9741 55.8482C36.014 55.575 34.2074 54.5869 32.8695 53.0562L35.6632 60H24.3677L27.0809 53.2557C26.1055 54.3252 24.8868 55.1156 23.5399 55.5521C21.9642 56.0263 20.2918 56.0122 18.7236 55.5116C17.1553 55.011 15.7578 54.0451 14.6989 52.7299C13.4715 51.2234 12.6252 49.4158 12.2383 47.4743C11.8515 45.5328 11.9366 43.5201 12.4858 41.6223C13.1006 39.5642 14.2782 37.7419 15.8716 36.3827L30.0011 24L44.0444 36.1894C45.6419 37.5507 46.8283 39.3712 47.4589 41.4289C48.6143 45.3631 47.936 49.8593 45.263 52.8749Z" fill="#1D1D1B"/>
<path d="M52.7605 64.7273H55.5048V75.4659C55.4998 76.4503 55.291 77.2979 54.8784 78.0089C54.4657 78.7148 53.889 79.2592 53.1483 79.642C52.4125 80.0199 51.5549 80.2088 50.5755 80.2088C49.6806 80.2088 48.8752 80.0497 48.1593 79.7315C47.4483 79.4084 46.8841 78.9311 46.4664 78.2997C46.0488 77.6683 45.84 76.8828 45.84 75.9432H48.5918C48.5968 76.3558 48.6863 76.7113 48.8603 77.0096C49.0392 77.3079 49.2853 77.5366 49.5985 77.6957C49.9118 77.8548 50.2722 77.9343 50.6799 77.9343C51.1223 77.9343 51.4977 77.8423 51.8059 77.6584C52.1142 77.4695 52.3478 77.1911 52.5069 76.8232C52.671 76.4553 52.7555 76.0028 52.7605 75.4659V64.7273Z" fill="#1D1D1B"/>
<path d="M10.532 4.72727H13.2763V15.4659C13.2713 16.4503 13.0625 17.2979 12.6499 18.0089C12.2372 18.7148 11.6605 19.2592 10.9197 19.642C10.1839 20.0199 9.32635 20.2088 8.34695 20.2088C7.45206 20.2088 6.64666 20.0497 5.93075 19.7315C5.21982 19.4084 4.65554 18.9311 4.23793 18.2997C3.82031 17.6683 3.61151 16.8828 3.61151 15.9432H6.36328C6.36825 16.3558 6.45774 16.7113 6.63175 17.0096C6.81072 17.3079 7.05682 17.5366 7.37003 17.6957C7.68324 17.8548 8.04368 17.9343 8.45135 17.9343C8.89382 17.9343 9.26918 17.8423 9.57742 17.6584C9.88565 17.4695 10.1193 17.1911 10.2784 16.8232C10.4425 16.4553 10.527 16.0028 10.532 15.4659V4.72727Z" fill="#1D1D1B"/>
</svg>
