<svg width="60" height="84" viewBox="0 0 60 84" fill="none" xmlns="http://www.w3.org/2000/svg">
<rect width="60" height="84" rx="5" fill="#D9D9D9"/>
<path d="M45.263 52.8749C44.3597 53.9431 43.2276 54.7699 41.9601 55.287C40.6926 55.804 39.3263 55.9964 37.9741 55.8482C36.014 55.575 34.2074 54.5869 32.8695 53.0562L35.6632 60H24.3677L27.0809 53.2557C26.1055 54.3252 24.8868 55.1156 23.5399 55.5521C21.9642 56.0263 20.2918 56.0122 18.7236 55.5116C17.1553 55.011 15.7578 54.0451 14.6989 52.7299C13.4715 51.2234 12.6252 49.4158 12.2383 47.4743C11.8515 45.5328 11.9366 43.5201 12.4858 41.6223C13.1006 39.5642 14.2782 37.7419 15.8716 36.3827L30.0011 24L44.0444 36.1894C45.6419 37.5507 46.8283 39.3712 47.4589 41.4289C48.6143 45.3631 47.936 49.8593 45.263 52.8749Z" fill="#1D1D1B"/>
<path d="M47.9132 74.8693H50.4189L51.9029 76.7933L52.9618 78.0462L55.5048 81.3125H52.8201L51.09 79.12L50.3517 78.076L47.9132 74.8693ZM55.8702 72.3636C55.8702 74.0092 55.562 75.4187 54.9455 76.592C54.334 77.7603 53.4988 78.6552 52.4398 79.2766C51.3858 79.8981 50.1902 80.2088 48.8528 80.2088C47.5154 80.2088 46.3173 79.8981 45.2583 79.2766C44.2044 78.6502 43.3691 77.7528 42.7527 76.5845C42.1412 75.4112 41.8354 74.0043 41.8354 72.3636C41.8354 70.718 42.1412 69.3111 42.7527 68.1428C43.3691 66.9695 44.2044 66.0721 45.2583 65.4506C46.3173 64.8292 47.5154 64.5185 48.8528 64.5185C50.1902 64.5185 51.3858 64.8292 52.4398 65.4506C53.4988 66.0721 54.334 66.9695 54.9455 68.1428C55.562 69.3111 55.8702 70.718 55.8702 72.3636ZM53.0886 72.3636C53.0886 71.2053 52.9071 70.2283 52.5442 69.4329C52.1863 68.6325 51.6891 68.0284 51.0527 67.6207C50.4164 67.2081 49.6831 67.0018 48.8528 67.0018C48.0225 67.0018 47.2892 67.2081 46.6529 67.6207C46.0165 68.0284 45.5169 68.6325 45.1539 69.4329C44.796 70.2283 44.617 71.2053 44.617 72.3636C44.617 73.522 44.796 74.5014 45.1539 75.3018C45.5169 76.0973 46.0165 76.7013 46.6529 77.114C47.2892 77.5217 48.0225 77.7255 48.8528 77.7255C49.6831 77.7255 50.4164 77.5217 51.0527 77.114C51.6891 76.7013 52.1863 76.0973 52.5442 75.3018C52.9071 74.5014 53.0886 73.522 53.0886 72.3636Z" fill="#1D1D1B"/>
<path d="M10.1964 14.8693H12.7021L14.1861 16.7933L15.245 18.0462L17.788 21.3125H15.1033L13.3732 19.12L12.6349 18.076L10.1964 14.8693ZM18.1534 12.3636C18.1534 14.0092 17.8452 15.4187 17.2287 16.592C16.6172 17.7603 15.782 18.6552 14.723 19.2766C13.669 19.8981 12.4734 20.2088 11.136 20.2088C9.79865 20.2088 8.6005 19.8981 7.54155 19.2766C6.48757 18.6502 5.65234 17.7528 5.03587 16.5845C4.42436 15.4112 4.11861 14.0043 4.11861 12.3636C4.11861 10.718 4.42436 9.31108 5.03587 8.14276C5.65234 6.96946 6.48757 6.07209 7.54155 5.45064C8.6005 4.82919 9.79865 4.51847 11.136 4.51847C12.4734 4.51847 13.669 4.82919 14.723 5.45064C15.782 6.07209 16.6172 6.96946 17.2287 8.14276C17.8452 9.31108 18.1534 10.718 18.1534 12.3636ZM15.3718 12.3636C15.3718 11.2053 15.1903 10.2283 14.8274 9.43288C14.4695 8.63246 13.9723 8.02841 13.3359 7.62074C12.6996 7.2081 11.9663 7.00178 11.136 7.00178C10.3058 7.00178 9.57244 7.2081 8.93608 7.62074C8.29972 8.02841 7.80007 8.63246 7.43715 9.43288C7.07919 10.2283 6.90021 11.2053 6.90021 12.3636C6.90021 13.522 7.07919 14.5014 7.43715 15.3018C7.80007 16.0973 8.29972 16.7013 8.93608 17.114C9.57244 17.5217 10.3058 17.7255 11.136 17.7255C11.9663 17.7255 12.6996 17.5217 13.3359 17.114C13.9723 16.7013 14.4695 16.0973 14.8274 15.3018C15.1903 14.5014 15.3718 13.522 15.3718 12.3636Z" fill="#1D1D1B"/>
</svg>
