<svg width="60" height="84" viewBox="0 0 60 84" fill="none" xmlns="http://www.w3.org/2000/svg">
<rect width="60" height="84" rx="5" fill="#D9D9D9"/>
<path d="M45.263 52.8749C44.3597 53.9431 43.2276 54.7699 41.9601 55.287C40.6926 55.804 39.3263 55.9964 37.9741 55.8482C36.014 55.575 34.2074 54.5869 32.8695 53.0562L35.6632 60H24.3677L27.0809 53.2557C26.1055 54.3252 24.8868 55.1156 23.5399 55.5521C21.9642 56.0263 20.2918 56.0122 18.7236 55.5116C17.1553 55.011 15.7578 54.0451 14.6989 52.7299C13.4715 51.2234 12.6252 49.4158 12.2383 47.4743C11.8515 45.5328 11.9366 43.5201 12.4858 41.6223C13.1006 39.5642 14.2782 37.7419 15.8716 36.3827L30.0011 24L44.0444 36.1894C45.6419 37.5507 46.8283 39.3712 47.4589 41.4289C48.6143 45.3631 47.936 49.8593 45.263 52.8749Z" fill="#1D1D1B"/>
<path d="M45.2714 80H42.3183L47.695 64.7273H51.1105L56.4948 80H53.5416L49.4624 67.8594H49.3431L45.2714 80ZM45.3683 74.0117H53.4223V76.234H45.3683V74.0117Z" fill="#1D1D1B"/>
<path d="M6.46768 20H3.51456L8.89134 4.72727H12.3068L17.6911 20H14.7379L10.6587 7.85938H10.5394L6.46768 20ZM6.56463 14.0117H14.6186V16.234H6.56463V14.0117Z" fill="#1D1D1B"/>
</svg>
