<svg width="60" height="84" viewBox="0 0 60 84" fill="none" xmlns="http://www.w3.org/2000/svg">
<rect width="60" height="84" rx="5" fill="#D9D9D9"/>
<path d="M45.263 52.8749C44.3597 53.9431 43.2276 54.7699 41.9601 55.287C40.6926 55.804 39.3263 55.9964 37.9741 55.8482C36.014 55.575 34.2074 54.5869 32.8695 53.0562L35.6632 60H24.3677L27.0809 53.2557C26.1055 54.3252 24.8868 55.1156 23.5399 55.5521C21.9642 56.0263 20.2918 56.0122 18.7236 55.5116C17.1553 55.011 15.7578 54.0451 14.6989 52.7299C13.4715 51.2234 12.6252 49.4158 12.2383 47.4743C11.8515 45.5328 11.9366 43.5201 12.4858 41.6223C13.1006 39.5642 14.2782 37.7419 15.8716 36.3827L30.0011 24L44.0444 36.1894C45.6419 37.5507 46.8283 39.3712 47.4589 41.4289C48.6143 45.3631 47.936 49.8593 45.263 52.8749Z" fill="#1D1D1B"/>
<path d="M45.3143 80V78.0014L50.6165 72.8036C51.1236 72.2915 51.5462 71.8366 51.8842 71.4389C52.2223 71.0412 52.4759 70.6559 52.6449 70.283C52.8139 69.9102 52.8984 69.5124 52.8984 69.0898C52.8984 68.6076 52.7891 68.195 52.5703 67.8519C52.3516 67.5039 52.0508 67.2354 51.668 67.0465C51.2852 66.8576 50.8501 66.7631 50.3629 66.7631C49.8608 66.7631 49.4208 66.8675 49.043 67.0763C48.6651 67.2802 48.3718 67.571 48.163 67.9489C47.9592 68.3267 47.8572 68.7766 47.8572 69.2987H45.2248C45.2248 68.3292 45.446 67.4865 45.8885 66.7706C46.331 66.0547 46.94 65.5004 47.7156 65.1076C48.4961 64.7148 49.391 64.5185 50.4002 64.5185C51.4244 64.5185 52.3242 64.7099 53.0998 65.0927C53.8754 65.4755 54.4769 66 54.9045 66.6662C55.337 67.3324 55.5533 68.093 55.5533 68.9482C55.5533 69.5199 55.4439 70.0817 55.2251 70.6335C55.0064 71.1854 54.6211 71.7969 54.0692 72.468C53.5224 73.1392 52.7543 73.9521 51.7649 74.9066L49.1325 77.5838V77.6882H55.7844V80H45.3143Z" fill="#1D1D1B"/>
<path d="M4.35724 20V18.0014L9.65945 12.8036C10.1665 12.2915 10.5891 11.8366 10.9272 11.4389C11.2653 11.0412 11.5188 10.6559 11.6879 10.283C11.8569 9.91016 11.9414 9.51243 11.9414 9.08984C11.9414 8.6076 11.832 8.19496 11.6133 7.85192C11.3945 7.50391 11.0938 7.23544 10.7109 7.04652C10.3281 6.8576 9.89311 6.76314 9.4059 6.76314C8.90376 6.76314 8.46378 6.86754 8.08594 7.07635C7.7081 7.28018 7.41477 7.57102 7.20597 7.94886C7.00213 8.3267 6.90021 8.77663 6.90021 9.29865H4.26776C4.26776 8.32919 4.48899 7.48651 4.93146 6.7706C5.37393 6.05469 5.98295 5.50035 6.75852 5.1076C7.53906 4.71484 8.43395 4.51847 9.44318 4.51847C10.4673 4.51847 11.3672 4.70987 12.1428 5.09268C12.9183 5.4755 13.5199 6 13.9474 6.66619C14.38 7.33239 14.5962 8.09304 14.5962 8.94815C14.5962 9.51989 14.4869 10.0817 14.2681 10.6335C14.0494 11.1854 13.6641 11.7969 13.1122 12.468C12.5653 13.1392 11.7972 13.9521 10.8079 14.9066L8.17543 17.5838V17.6882H14.8274V20H4.35724Z" fill="#1D1D1B"/>
</svg>
