<svg width="60" height="84" viewBox="0 0 60 84" fill="none" xmlns="http://www.w3.org/2000/svg">
<rect width="60" height="84" rx="5" fill="#D9D9D9"/>
<path d="M45.263 52.8749C44.3597 53.9431 43.2276 54.7699 41.9601 55.287C40.6926 55.804 39.3263 55.9964 37.9741 55.8482C36.014 55.575 34.2074 54.5869 32.8695 53.0562L35.6632 60H24.3677L27.0809 53.2557C26.1055 54.3252 24.8868 55.1156 23.5399 55.5521C21.9642 56.0263 20.2918 56.0122 18.7236 55.5116C17.1553 55.011 15.7578 54.0451 14.6989 52.7299C13.4715 51.2234 12.6252 49.4158 12.2383 47.4743C11.8515 45.5328 11.9366 43.5201 12.4858 41.6223C13.1006 39.5642 14.2782 37.7419 15.8716 36.3827L30.0011 24L44.0444 36.1894C45.6419 37.5507 46.8283 39.3712 47.4589 41.4289C48.6143 45.3631 47.936 49.8593 45.263 52.8749Z" fill="#1D1D1B"/>
<path d="M50.3778 80.2088C49.3835 80.2088 48.4936 80.0224 47.7081 79.6495C46.9226 79.2717 46.2987 78.7546 45.8363 78.0984C45.3789 77.4421 45.1353 76.6914 45.1055 75.8462H47.7901C47.8398 76.4727 48.1108 76.9847 48.603 77.3825C49.0952 77.7752 49.6868 77.9716 50.3778 77.9716C50.9197 77.9716 51.402 77.8473 51.8246 77.5987C52.2472 77.3501 52.5803 77.0046 52.8239 76.5621C53.0675 76.1197 53.1868 75.6151 53.1818 75.0483C53.1868 74.4716 53.065 73.9595 52.8164 73.5121C52.5678 73.0646 52.2273 72.7141 51.7947 72.4606C51.3622 72.2021 50.8651 72.0728 50.3033 72.0728C49.8459 72.0678 49.396 72.1523 48.9535 72.3263C48.511 72.5004 48.1605 72.729 47.902 73.0124L45.4038 72.6023L46.2017 64.7273H55.0611V67.0391H48.4911L48.0511 71.0884H48.1406C48.424 70.7553 48.8242 70.4794 49.3413 70.2607C49.8583 70.0369 50.4251 69.9251 51.0415 69.9251C51.9663 69.9251 52.7915 70.1438 53.5174 70.5813C54.2433 71.0138 54.815 71.6104 55.2326 72.3711C55.6502 73.1317 55.859 74.0018 55.859 74.9812C55.859 75.9904 55.6254 76.8903 55.158 77.6808C54.6957 78.4663 54.0518 79.0852 53.2266 79.5376C52.4062 79.9851 51.4567 80.2088 50.3778 80.2088Z" fill="#1D1D1B"/>
<path d="M9.6669 20.2088C8.67259 20.2088 7.78267 20.0224 6.99716 19.6495C6.21165 19.2717 5.58771 18.7546 5.12536 18.0984C4.66797 17.4421 4.42436 16.6914 4.39453 15.8462H7.07919C7.12891 16.4727 7.39986 16.9847 7.89205 17.3825C8.38423 17.7752 8.97585 17.9716 9.6669 17.9716C10.2088 17.9716 10.6911 17.8473 11.1136 17.5987C11.5362 17.3501 11.8693 17.0046 12.1129 16.5621C12.3565 16.1197 12.4759 15.6151 12.4709 15.0483C12.4759 14.4716 12.354 13.9595 12.1055 13.5121C11.8569 13.0646 11.5163 12.7141 11.0838 12.4606C10.6513 12.2021 10.1541 12.0728 9.59233 12.0728C9.13494 12.0678 8.68501 12.1523 8.24254 12.3263C7.80007 12.5004 7.44957 12.729 7.19105 13.0124L4.69283 12.6023L5.49077 4.72727H14.3501V7.03906H7.78018L7.3402 11.0884H7.42969C7.71307 10.7553 8.11328 10.4794 8.63033 10.2607C9.14737 10.0369 9.71413 9.92507 10.3306 9.92507C11.2553 9.92507 12.0806 10.1438 12.8065 10.5813C13.5323 11.0138 14.104 11.6104 14.5217 12.3711C14.9393 13.1317 15.1481 14.0018 15.1481 14.9812C15.1481 15.9904 14.9144 16.8903 14.4471 17.6808C13.9847 18.4663 13.3409 19.0852 12.5156 19.5376C11.6953 19.9851 10.7457 20.2088 9.6669 20.2088Z" fill="#1D1D1B"/>
</svg>
