<svg width="60" height="84" viewBox="0 0 60 84" fill="none" xmlns="http://www.w3.org/2000/svg">
<rect width="60" height="84" rx="5" fill="#D9D9D9"/>
<path d="M45.263 52.8749C44.3597 53.9431 43.2276 54.7699 41.9601 55.287C40.6926 55.804 39.3263 55.9964 37.9741 55.8482C36.014 55.575 34.2074 54.5869 32.8695 53.0562L35.6632 60H24.3677L27.0809 53.2557C26.1055 54.3252 24.8868 55.1156 23.5399 55.5521C21.9642 56.0263 20.2918 56.0122 18.7236 55.5116C17.1553 55.011 15.7578 54.0451 14.6989 52.7299C13.4715 51.2234 12.6252 49.4158 12.2383 47.4743C11.8515 45.5328 11.9366 43.5201 12.4858 41.6223C13.1006 39.5642 14.2782 37.7419 15.8716 36.3827L30.0011 24L44.0444 36.1894C45.6419 37.5507 46.8283 39.3712 47.4589 41.4289C48.6143 45.3631 47.936 49.8593 45.263 52.8749Z" fill="#1D1D1B"/>
<path d="M50.0423 64.5185C50.7731 64.5234 51.484 64.6527 52.1751 64.9062C52.8711 65.1548 53.4975 65.5625 54.0543 66.1293C54.6112 66.6911 55.0536 67.4442 55.3817 68.3888C55.7099 69.3335 55.8739 70.5018 55.8739 71.8938C55.8789 73.2063 55.7397 74.3796 55.4563 75.4137C55.1779 76.4428 54.7777 77.3129 54.2557 78.0238C53.7337 78.7347 53.1048 79.2766 52.369 79.6495C51.6332 80.0224 50.8054 80.2088 49.8857 80.2088C48.9212 80.2088 48.0661 80.0199 47.3203 79.642C46.5795 79.2642 45.9805 78.7472 45.5231 78.0909C45.0657 77.4347 44.7848 76.6839 44.6804 75.8388H47.4023C47.5415 76.4453 47.8249 76.9276 48.2525 77.2855C48.685 77.6385 49.2294 77.815 49.8857 77.815C50.9446 77.815 51.7599 77.3551 52.3317 76.4354C52.9034 75.5156 53.1893 74.2379 53.1893 72.6023H53.0849C52.8413 73.0398 52.5256 73.4176 52.1378 73.7358C51.75 74.049 51.31 74.2901 50.8178 74.4592C50.3306 74.6282 49.8136 74.7127 49.2667 74.7127C48.3718 74.7127 47.5664 74.4989 46.8505 74.0714C46.1396 73.6438 45.5753 73.0572 45.1577 72.3114C44.745 71.5657 44.5362 70.7131 44.5312 69.7536C44.5312 68.7592 44.7599 67.8668 45.2173 67.0763C45.6797 66.2809 46.3235 65.6545 47.1488 65.1971C47.9741 64.7347 48.9386 64.5085 50.0423 64.5185ZM50.0497 66.7557C49.5128 66.7557 49.0281 66.8874 48.5955 67.1509C48.168 67.4094 47.8299 67.7624 47.5813 68.2099C47.3377 68.6523 47.2159 69.147 47.2159 69.6939C47.2209 70.2358 47.3427 70.728 47.5813 71.1705C47.8249 71.6129 48.1555 71.9634 48.5732 72.2219C48.9957 72.4805 49.478 72.6097 50.0199 72.6097C50.4226 72.6097 50.7979 72.5327 51.146 72.3786C51.494 72.2244 51.7972 72.0107 52.0558 71.7372C52.3192 71.4588 52.5231 71.1431 52.6673 70.7901C52.8164 70.4371 52.8885 70.0643 52.8835 69.6715C52.8835 69.1495 52.7592 68.6673 52.5107 68.2248C52.267 67.7823 51.9315 67.4268 51.5039 67.1584C51.0813 66.8899 50.5966 66.7557 50.0497 66.7557Z" fill="#1D1D1B"/>
<path d="M9.65945 4.51847C10.3903 4.52344 11.1012 4.6527 11.7923 4.90625C12.4883 5.15483 13.1147 5.5625 13.6715 6.12926C14.2283 6.69105 14.6708 7.44425 14.9989 8.38885C15.3271 9.33345 15.4911 10.5018 15.4911 11.8938C15.4961 13.2063 15.3569 14.3796 15.0735 15.4137C14.7951 16.4428 14.3949 17.3129 13.8729 18.0238C13.3509 18.7347 12.7219 19.2766 11.9862 19.6495C11.2504 20.0224 10.4226 20.2088 9.50284 20.2088C8.53835 20.2088 7.68324 20.0199 6.9375 19.642C6.19673 19.2642 5.59766 18.7472 5.14027 18.0909C4.68288 17.4347 4.40199 16.6839 4.29759 15.8388H7.01953C7.15874 16.4453 7.44212 16.9276 7.86967 17.2855C8.3022 17.6385 8.84659 17.815 9.50284 17.815C10.5618 17.815 11.3771 17.3551 11.9489 16.4354C12.5206 15.5156 12.8065 14.2379 12.8065 12.6023H12.7021C12.4585 13.0398 12.1428 13.4176 11.755 13.7358C11.3672 14.049 10.9272 14.2901 10.435 14.4592C9.9478 14.6282 9.43075 14.7127 8.88388 14.7127C7.98899 14.7127 7.18359 14.4989 6.46768 14.0714C5.75675 13.6438 5.19247 13.0572 4.77486 12.3114C4.36222 11.5657 4.15341 10.7131 4.14844 9.75355C4.14844 8.75923 4.37713 7.86683 4.83452 7.07635C5.29688 6.28089 5.9407 5.65447 6.76598 5.19709C7.59126 4.73473 8.55575 4.50852 9.65945 4.51847ZM9.6669 6.75568C9.12997 6.75568 8.64524 6.88743 8.21271 7.15092C7.78516 7.40945 7.44709 7.76243 7.19851 8.20987C6.9549 8.65234 6.8331 9.14702 6.8331 9.69389C6.83807 10.2358 6.95987 10.728 7.19851 11.1705C7.44212 11.6129 7.77273 11.9634 8.19034 12.2219C8.61293 12.4805 9.09517 12.6097 9.63707 12.6097C10.0398 12.6097 10.4151 12.5327 10.7631 12.3786C11.1112 12.2244 11.4144 12.0107 11.6729 11.7372C11.9364 11.4588 12.1403 11.1431 12.2844 10.7901C12.4336 10.4371 12.5057 10.0643 12.5007 9.67152C12.5007 9.1495 12.3764 8.66726 12.1278 8.22479C11.8842 7.78232 11.5487 7.42685 11.1211 7.15838C10.6985 6.88991 10.2138 6.75568 9.6669 6.75568Z" fill="#1D1D1B"/>
</svg>
